<svg width="300" height="300" viewBox="0 0 300 300" fill="none" xmlns="http://www.w3.org/2000/svg">
<path d="M135.938 206.25C174.722 206.25 206.25 167.869 206.25 120.703C206.25 73.5281 174.722 35.1562 135.938 35.1562C116.756 35.1562 98.85 44.3344 85.5187 60.9844C72.6844 77.0344 65.6156 98.2406 65.625 120.703C65.625 167.878 97.1625 206.25 135.938 206.25ZM135.938 53.9062C164.363 53.9062 187.5 83.8688 187.5 120.703C187.5 157.547 164.363 187.5 135.938 187.5C107.512 187.5 84.375 157.547 84.3563 120.703C84.3563 83.8688 107.494 53.9062 135.938 53.9062ZM194.991 196.875C189.806 196.875 185.616 201.066 185.616 206.25C185.616 211.434 189.806 215.625 194.991 215.625C227.044 215.625 253.125 241.706 253.125 273.769C253.125 277.884 249.759 281.25 245.616 281.25H26.2406C22.1156 281.25 18.75 277.903 18.75 273.769C18.75 241.706 44.8219 215.625 76.8656 215.625C82.05 215.625 86.2406 211.434 86.2406 206.25C86.2406 201.066 82.05 196.875 76.8656 196.875C34.4813 196.875 0 231.375 0 273.769C0 288.234 11.775 300 26.2406 300H245.616C260.091 300 271.875 288.234 271.875 273.769C271.875 231.375 237.375 196.875 194.991 196.875ZM142.791 24.7406C149.503 20.7656 156.656 18.7594 164.062 18.7594C192.488 18.7594 215.625 48.7219 215.625 85.5469C215.625 92.1562 214.894 98.6344 213.45 104.831C212.259 109.875 215.391 114.919 220.425 116.1C221.147 116.278 221.859 116.344 222.572 116.344C226.828 116.344 230.672 113.428 231.694 109.116C233.456 101.512 234.375 93.5906 234.375 85.5469C234.375 38.3812 202.847 0 164.062 0C153.403 0 142.762 2.97187 133.256 8.59687C128.794 11.2312 127.322 16.9875 129.956 21.4406C132.591 25.8937 138.356 27.375 142.791 24.7406ZM225 159.375C219.816 159.375 215.625 163.566 215.625 168.75C215.625 173.934 219.816 178.125 225 178.125C257.053 178.125 281.25 204.844 281.25 236.887C281.25 237.947 281.053 239.006 280.612 239.944C278.512 244.687 280.65 250.219 285.375 252.319C286.594 252.872 287.897 253.125 289.181 253.125C292.772 253.125 296.194 251.034 297.75 247.556C299.241 244.191 300 240.6 300 236.859C300 194.503 267.384 159.375 225 159.375Z" fill="#4953A4"/>
</svg>
