<svg width="22" height="22" viewBox="0 0 22 22" fill="none" xmlns="http://www.w3.org/2000/svg">
<path d="M21.1219 6.71678C19.962 4.01262 17.991 2.04596 15.2642 0.883013C13.9014 0.301775 12.4736 0.00488281 10.9819 0.00488281C9.49052 0.00488281 8.07325 0.298971 6.71191 0.883013C4.00774 2.04287 2.02799 4.00827 0.866052 6.71678C0.283807 8.07374 0 9.49536 0 10.9868C0 12.4784 0.283807 13.9119 0.866052 15.2691C2.02799 17.9776 4.00799 19.9548 6.71191 21.1149C8.0735 21.699 9.49048 21.9928 10.9819 21.9928C12.4734 21.9928 13.9014 21.6959 15.264 21.1149C17.9908 19.952 19.9618 17.973 21.1219 15.2691C21.7059 13.9075 22 12.4784 22 10.9868C22 9.49536 21.7062 8.07834 21.1219 6.71678ZM19.3659 15.8465C18.5024 17.3274 17.3194 18.5022 15.8295 19.3708C14.3487 20.2343 12.7261 20.6697 10.9822 20.6697C9.67116 20.6697 8.42018 20.4172 7.22923 19.8999C6.03832 19.3828 5.01007 18.7031 4.14991 17.8432C3.28976 16.983 2.60513 15.9447 2.0932 14.7518C1.58278 13.5632 1.33542 12.2981 1.33542 10.9868C1.33542 9.24261 1.76395 7.62827 2.6226 6.15151C3.4843 4.66935 4.66752 3.49328 6.14688 2.62719C7.62598 1.76114 9.23802 1.32797 10.9819 1.32797C12.7261 1.32797 14.3484 1.7637 15.8293 2.62719C17.3192 3.49584 18.4996 4.67186 19.3656 6.15147C20.2317 7.63083 20.6646 9.24261 20.6646 10.9868C20.6646 12.731 20.2345 14.3563 19.3659 15.8465Z" fill="#EE2C37"/>
<path d="M11.6794 10.8917V4.66089C11.6794 4.28804 11.3545 3.9873 10.9816 3.9873C10.6329 3.9873 10.3201 4.28804 10.3201 4.66089V10.9879C10.3201 11 10.3442 11.0482 10.3442 11.0841C10.3201 11.3007 10.3804 11.4811 10.5246 11.6256L14.1213 15.222C14.362 15.4627 14.8069 15.4627 15.0474 15.222C15.324 14.9454 15.3058 14.544 15.0474 14.2838L11.6794 10.8917Z" fill="#EE2C37"/>
</svg>
