<svg width="312" height="300" viewBox="0 0 312 300" fill="none" xmlns="http://www.w3.org/2000/svg">
<path d="M233.216 300C228.463 300 223.887 298.829 219.578 296.542L159.617 264.406C156.655 262.845 152.913 262.775 149.88 264.335L89.4222 295.495C77.433 301.667 62.5011 298.492 53.9883 288.295C48.544 281.768 46.2736 273.202 47.7993 264.761L59.8407 197.812C60.4437 194.425 59.3442 190.949 56.8969 188.519L8.56933 140.636C0.712888 132.851 -2.00073 121.5 1.51089 111.001C5.00443 100.503 13.9966 93.0541 24.9566 91.5466L92.3489 82.3072C95.754 81.8459 98.7329 79.7182 100.277 76.6498L130.869 15.8908C135.8 6.08354 145.678 0 156.621 0C167.794 0 177.743 6.24234 182.602 16.2978L212.219 77.5362C213.708 80.6398 216.652 82.7856 220.057 83.3183L287.308 93.6572C298.232 95.3245 307.1 102.915 310.434 113.467C313.767 124.019 310.877 135.333 302.897 142.995L253.807 190.08C251.325 192.457 250.172 195.915 250.722 199.32L261.682 266.464C263.065 274.958 260.795 283.223 255.28 289.731C249.727 296.258 241.693 300 233.216 300ZM154.686 244.774C159.421 244.774 164.138 245.962 168.324 248.197L228.285 280.332C232.719 282.673 238.111 281.52 241.285 277.814C242.686 276.164 244.211 273.38 243.555 269.407L232.595 202.263C231.069 192.881 234.244 183.376 241.09 176.797L290.179 129.711C293.123 126.891 294.152 122.883 292.91 118.999C291.686 115.116 288.547 112.419 284.522 111.799L217.271 101.477C207.872 100.041 199.802 94.0642 195.671 85.5334L166.054 24.296C162.507 16.9893 150.962 16.8828 147.273 24.1362L116.68 84.9133C112.424 93.3908 104.248 99.2251 94.8484 100.52L27.4561 109.759C23.4128 110.309 20.2208 112.969 18.9434 116.836C17.6489 120.684 18.6067 124.71 21.5153 127.565L69.8429 175.432C76.5998 182.117 79.615 191.676 77.9476 201.023L65.9061 267.989C65.1795 271.979 66.7042 274.818 68.0871 276.467C71.1907 280.209 76.5466 281.433 80.9979 279.127L141.455 247.967C145.535 245.891 150.111 244.774 154.686 244.774Z" fill="#4953A4"/>
</svg>
