<svg width="256" height="300" viewBox="0 0 256 300" fill="none" xmlns="http://www.w3.org/2000/svg">
<path d="M226.176 56.25H199.567C195.171 56.25 191.584 52.5656 191.584 48.0469V26.9531C191.584 12.0844 178.471 0 162.314 0H29.2698C13.1235 0 0 12.0844 0 26.9531V273.047C0 287.906 13.1235 300 29.2698 300H226.176C242.333 300 255.446 287.906 255.446 273.047V83.2031C255.446 68.3344 242.333 56.25 226.176 56.25ZM234.158 273.047C234.158 277.566 230.572 281.25 226.176 281.25H29.2698C24.874 281.25 21.2871 277.566 21.2871 273.047V26.9531C21.2871 22.4344 24.874 18.75 29.2698 18.75H162.314C166.71 18.75 170.297 22.4344 170.297 26.9531V48.0469C170.297 62.9156 183.41 75 199.567 75H226.176C230.572 75 234.158 78.6844 234.158 83.2031V273.047ZM53.2178 93.75H138.366C144.252 93.75 149.01 89.5594 149.01 84.375C149.01 79.1906 144.252 75 138.366 75H53.2178C47.3319 75 42.5743 79.1906 42.5743 84.375C42.5743 89.5594 47.3319 93.75 53.2178 93.75ZM202.228 112.5H53.2178C47.3319 112.5 42.5743 116.691 42.5743 121.875C42.5743 127.059 47.3319 131.25 53.2178 131.25H202.228C208.114 131.25 212.871 127.059 212.871 121.875C212.871 116.691 208.114 112.5 202.228 112.5ZM202.228 150H53.2178C47.3319 150 42.5743 154.191 42.5743 159.375C42.5743 164.559 47.3319 168.75 53.2178 168.75H202.228C208.114 168.75 212.871 164.559 212.871 159.375C212.871 154.191 208.114 150 202.228 150ZM202.228 187.5H53.2178C47.3319 187.5 42.5743 191.691 42.5743 196.875C42.5743 202.05 47.3319 206.25 53.2178 206.25H202.228C208.114 206.25 212.871 202.05 212.871 196.875C212.871 191.691 208.114 187.5 202.228 187.5ZM202.228 225H53.2178C47.3319 225 42.5743 229.191 42.5743 234.375C42.5743 239.55 47.3319 243.75 53.2178 243.75H202.228C208.114 243.75 212.871 239.55 212.871 234.375C212.871 229.191 208.114 225 202.228 225Z" fill="#4953A4"/>
</svg>
