<svg width="19" height="19" viewBox="0 0 19 19" fill="none" xmlns="http://www.w3.org/2000/svg">
<path d="M7.49016 6.83492L8.92621 8.06199L10.4687 11.8836C10.5311 12.0383 10.6594 12.1569 10.8185 12.2072L18.2731 14.5614C18.3284 14.5788 18.3851 14.5873 18.4413 14.5873C18.5872 14.5873 18.73 14.5301 18.8363 14.4237C18.9836 14.2763 19.0368 14.0593 18.974 13.8605L16.6199 6.40585C16.5696 6.24657 16.4507 6.11817 16.2957 6.05585L12.4864 4.52307L11.2495 3.07553C11.1483 2.9571 11.0023 2.88632 10.8467 2.88026C10.6918 2.87459 10.5399 2.93332 10.4298 3.04345L7.45808 6.01531C7.34795 6.12543 7.28882 6.27649 7.29489 6.43218C7.30103 6.58779 7.37181 6.73374 7.49016 6.83492ZM17.2207 12.018L13.4666 8.26388C13.2485 8.04579 12.8948 8.04571 12.6766 8.26388C12.4585 8.48197 12.4585 8.83572 12.6766 9.05381L16.4306 12.8079L11.4062 11.2211L10.0557 7.87534L12.2849 5.64608L15.6341 6.99372L17.2207 12.018ZM10.7927 4.26062L11.3907 4.96045L9.37508 6.97609L8.67525 6.37808L10.7927 4.26062Z" fill="white"/>
<path d="M18.4414 15.0027H0.558591C0.250089 15.0027 0 15.2528 0 15.5613C0 15.8698 0.250089 16.1199 0.558591 16.1199H18.4414C18.7499 16.1199 19 15.8698 19 15.5613C19 15.2528 18.7499 15.0027 18.4414 15.0027Z" fill="white"/>
</svg>
