<svg width="294" height="300" viewBox="0 0 294 300" fill="none" xmlns="http://www.w3.org/2000/svg">
<path d="M185.568 229.325H152.543V181.259C162.057 178.348 169.349 169.31 169.349 158.623C169.349 145.588 158.716 135 145.693 135C132.669 135 122.074 145.588 122.074 158.623C122.074 169.31 129.437 178.347 138.951 181.259V229.325H105.752C102.023 229.325 99.0006 232.051 99.0006 235.781C99.0006 239.51 102.023 242.236 105.752 242.236H185.568C189.297 242.236 192.319 239.51 192.319 235.781C192.319 232.051 189.297 229.325 185.568 229.325ZM135.539 158.623C135.539 153.035 140.084 148.49 145.66 148.49C151.236 148.49 155.781 153.047 155.781 158.623C155.781 164.212 151.236 168.757 145.66 168.757C140.084 168.757 135.539 164.199 135.539 158.623Z" fill="white"/>
<path d="M178.709 257.187H112.612C108.882 257.187 105.86 260.247 105.86 263.977C105.86 267.706 108.882 270.778 112.612 270.778H178.709C182.438 270.778 185.46 267.706 185.46 263.977C185.46 260.259 182.438 257.187 178.709 257.187Z" fill="white"/>
<path d="M175.015 286.409H116.305C112.576 286.409 109.554 289.475 109.554 293.204C109.554 296.934 112.576 300 116.305 300H175.015C178.745 300 181.767 296.934 181.767 293.204C181.767 289.475 178.745 286.409 175.015 286.409Z" fill="white"/>
<path d="M145.66 61.5398C99.9479 61.5398 62.7625 98.7252 62.7625 144.425C62.7625 178.157 83.0402 207.189 112.024 220.116C122.157 224.901 129.364 213.472 119.95 208.831C94.3842 198.591 76.2533 173.6 76.2533 144.425C76.2533 106.172 107.383 75.03 145.648 75.03C183.901 75.03 215.031 106.172 215.031 144.425C215.031 173.505 197.02 198.435 171.586 208.736C162.4 212.417 166.969 225.416 179.369 220.067C208.292 207.117 228.522 178.121 228.522 144.425C228.546 98.7252 191.36 61.5398 145.66 61.5398Z" fill="white"/>
<path d="M145.068 48.3494C149.037 48.3494 152.543 45.1357 152.543 41.1664V7.19462C152.543 3.22524 149.049 0 145.068 0C141.099 0 137.593 3.22592 137.593 7.19462V41.1541C137.593 45.1235 141.087 48.3494 145.068 48.3494Z" fill="white"/>
<path d="M41.1664 140.98H7.19462C3.22524 140.98 0 144.147 0 148.116C0 152.085 3.22592 155.251 7.19462 155.251H41.1664C45.1473 155.251 48.361 152.097 48.361 148.116C48.361 144.147 45.1351 140.98 41.1664 140.98Z" fill="white"/>
<path d="M65.5806 75.2462C68.3866 78.0521 72.9431 78.0521 75.7497 75.2462C78.5679 72.4402 78.5679 67.8837 75.7497 65.0771L51.7303 41.0583C48.9244 38.2524 44.3678 38.2524 41.5612 41.0583C38.7546 43.8643 38.7552 48.4208 41.5612 51.2274L65.5806 75.2462Z" fill="white"/>
<path d="M286.525 140.98H252.553C248.572 140.98 245.358 144.147 245.358 148.116C245.358 152.097 248.572 155.251 252.553 155.251H286.525C290.494 155.251 293.719 152.085 293.719 148.116C293.719 144.147 290.494 140.98 286.525 140.98Z" fill="white"/>
<path d="M228.126 75.2462L252.145 51.2274C254.951 48.4215 254.951 43.8643 252.145 41.0583C249.326 38.2524 244.782 38.2524 241.975 41.0583L217.957 65.0771C215.151 67.883 215.151 72.4395 217.957 75.2462C220.763 78.0521 225.32 78.0521 228.126 75.2462Z" fill="white"/>
</svg>
