<svg width="22" height="22" viewBox="0 0 22 22" fill="none" xmlns="http://www.w3.org/2000/svg">
<g clip-path="url(#clip0)">
<path d="M11.0954 11.8542C11.1186 11.8542 11.1418 11.8542 11.1697 11.8542C11.179 11.8542 11.1883 11.8542 11.1975 11.8542C11.2115 11.8542 11.23 11.8542 11.244 11.8542C12.604 11.8314 13.7042 11.3622 14.5165 10.4647C16.3036 8.48747 16.0065 5.09795 15.974 4.77449C15.858 2.34624 14.6882 1.18451 13.7227 0.642369C13.0032 0.236902 12.1631 0.0182232 11.2254 0H11.1929C11.1883 0 11.179 0 11.1743 0H11.1465C10.6312 0 9.61932 0.0820046 8.64917 0.624146C7.67438 1.16629 6.48607 2.32802 6.37002 4.77449C6.33753 5.09795 6.04045 8.48747 7.82756 10.4647C8.63524 11.3622 9.73536 11.8314 11.0954 11.8542ZM7.60939 4.88838C7.60939 4.87472 7.61404 4.86105 7.61404 4.85194C7.76722 1.58542 10.1299 1.23462 11.1418 1.23462H11.1604C11.1697 1.23462 11.1836 1.23462 11.1975 1.23462C12.4508 1.26196 14.5815 1.7631 14.7254 4.85194C14.7254 4.8656 14.7254 4.87927 14.73 4.88838C14.7346 4.92027 15.0596 8.01822 13.5835 9.6492C12.9986 10.2961 12.2188 10.615 11.1929 10.6241C11.1836 10.6241 11.179 10.6241 11.1697 10.6241C11.1604 10.6241 11.1558 10.6241 11.1465 10.6241C10.1253 10.615 9.34081 10.2961 8.76057 9.6492C7.28911 8.02734 7.60475 4.91572 7.60939 4.88838Z" fill="#4953A4"/>
<path d="M20.7089 17.4761C20.7089 17.4715 20.7089 17.467 20.7089 17.4624C20.7089 17.426 20.7043 17.3895 20.7043 17.3485C20.6764 16.4465 20.6161 14.3371 18.6015 13.6629C18.5876 13.6583 18.569 13.6537 18.5551 13.6492C16.4616 13.1253 14.7209 11.9408 14.7024 11.9271C14.4192 11.7312 14.0293 11.7995 13.8297 12.0774C13.6301 12.3553 13.6997 12.738 13.9829 12.9339C14.0618 12.9886 15.9092 14.2506 18.2209 14.8337C19.3024 15.2118 19.4231 16.3462 19.4556 17.385C19.4556 17.426 19.4556 17.4624 19.4603 17.4989C19.4649 17.9089 19.4371 18.5421 19.3628 18.9066C18.6108 19.3257 15.6632 20.7745 11.1792 20.7745C6.71373 20.7745 3.74758 19.3212 2.99096 18.902C2.91669 18.5376 2.88419 17.9043 2.89348 17.4943C2.89348 17.4579 2.89812 17.4214 2.89812 17.3804C2.93061 16.3417 3.0513 15.2073 4.13285 14.8291C6.4445 14.246 8.29196 12.9795 8.37087 12.9294C8.65402 12.7335 8.72365 12.3508 8.52405 12.0729C8.32445 11.795 7.93453 11.7266 7.65138 11.9225C7.63281 11.9362 5.9014 13.1207 3.79864 13.6446C3.78007 13.6492 3.76615 13.6537 3.75222 13.6583C1.73766 14.3371 1.67731 16.4465 1.64946 17.344C1.64946 17.385 1.64946 17.4214 1.64482 17.4579C1.64482 17.4624 1.64482 17.467 1.64482 17.4715C1.64018 17.7084 1.63553 18.9248 1.88155 19.5353C1.92797 19.6538 2.01152 19.754 2.12293 19.8223C2.26219 19.9134 5.59968 22 11.1838 22C16.768 22 20.1055 19.9089 20.2447 19.8223C20.3515 19.754 20.4397 19.6538 20.4861 19.5353C20.7182 18.9294 20.7136 17.713 20.7089 17.4761Z" fill="#4953A4"/>
</g>
<defs>
<clipPath id="clip0">
<rect width="22" height="22" fill="white"/>
</clipPath>
</defs>
</svg>
