<svg width="18" height="18" viewBox="0 0 18 18" fill="none" xmlns="http://www.w3.org/2000/svg">
<g clip-path="url(#clip0)">
<path d="M15.8026 2.15088H2.20112C0.986965 2.15088 0 3.13784 0 4.352V13.6481C0 14.8622 0.986965 15.8492 2.20112 15.8492H15.7989C17.013 15.8492 18 14.8622 18 13.6481V4.35572C18.0037 3.14157 17.0168 2.15088 15.8026 2.15088ZM16.9981 13.6481C16.9981 14.3073 16.4618 14.8436 15.8026 14.8436H2.20112C1.5419 14.8436 1.00559 14.3073 1.00559 13.6481V4.35572C1.00559 3.6965 1.5419 3.16019 2.20112 3.16019H15.7989C16.4581 3.16019 16.9944 3.6965 16.9944 4.35572V13.6481H16.9981Z" fill="white"/>
<path d="M11.352 8.8845L15.7542 4.93664C15.959 4.75042 15.9777 4.43385 15.7914 4.22528C15.6052 4.02044 15.2886 4.00182 15.0801 4.18804L9.00931 9.63683L7.82495 8.5791C7.82123 8.57537 7.8175 8.57165 7.8175 8.56792C7.79143 8.54185 7.76536 8.51951 7.73557 8.49716L2.9162 4.18431C2.70764 3.99809 2.39106 4.01671 2.20484 4.22528C2.01862 4.43385 2.03724 4.75042 2.24581 4.93664L6.70019 8.91802L2.26443 13.0707C2.06331 13.2607 2.05214 13.5772 2.24209 13.7821C2.34264 13.8864 2.47672 13.9422 2.6108 13.9422C2.73371 13.9422 2.85661 13.8975 2.95345 13.8081L7.45624 9.59586L8.67784 10.6871C8.77467 10.7728 8.89385 10.8137 9.01303 10.8137C9.13221 10.8137 9.25512 10.769 9.34823 10.6834L10.6034 9.55861L15.0801 13.8119C15.1769 13.905 15.3035 13.9497 15.4264 13.9497C15.5605 13.9497 15.6909 13.8975 15.7914 13.7933C15.9814 13.5921 15.9739 13.2718 15.7728 13.0819L11.352 8.8845Z" fill="white"/>
</g>
<defs>
<clipPath id="clip0">
<rect width="18" height="18" fill="white"/>
</clipPath>
</defs>
</svg>
