<svg width="15" height="15" viewBox="0 0 15 15" fill="none" xmlns="http://www.w3.org/2000/svg">
<g clip-path="url(#clip0)">
<path d="M7.56512 8.08242C7.58095 8.08242 7.59677 8.08242 7.61576 8.08242C7.62209 8.08242 7.62842 8.08242 7.63475 8.08242C7.64425 8.08242 7.6569 8.08242 7.6664 8.08242C8.59372 8.06689 9.3438 7.74695 9.89766 7.13502C11.1161 5.78691 10.9136 3.47588 10.8914 3.25533C10.8123 1.59971 10.0148 0.807621 9.35646 0.437979C8.8659 0.161524 8.29305 0.0124249 7.65374 0H7.63159C7.62842 0 7.62209 0 7.61893 0H7.59994C7.24863 0 6.55868 0.0559122 5.89722 0.425554C5.23259 0.795196 4.42238 1.58729 4.34325 3.25533C4.3211 3.47588 4.11855 5.78691 5.33703 7.13502C5.88773 7.74695 6.63781 8.06689 7.56512 8.08242ZM5.18828 3.33299C5.18828 3.32367 5.19145 3.31435 5.19145 3.30814C5.29589 1.08097 6.90682 0.841789 7.59677 0.841789H7.60943C7.61576 0.841789 7.62526 0.841789 7.63475 0.841789C8.48927 0.860427 9.94196 1.20211 10.0401 3.30814C10.0401 3.31746 10.0401 3.32678 10.0432 3.33299C10.0464 3.35473 10.2679 5.46697 9.26151 6.579C8.86273 7.02009 8.33103 7.23752 7.63159 7.24374C7.62526 7.24374 7.62209 7.24374 7.61576 7.24374C7.60943 7.24374 7.60627 7.24374 7.59994 7.24374C6.90366 7.23752 6.36879 7.02009 5.97318 6.579C4.9699 5.47318 5.18512 3.35163 5.18828 3.33299Z" fill="white"/>
<path d="M14.1196 11.9155C14.1196 11.9124 14.1196 11.9093 14.1196 11.9062C14.1196 11.8814 14.1165 11.8565 14.1165 11.8285C14.0975 11.2135 14.0563 9.77532 12.6828 9.3156C12.6733 9.3125 12.6606 9.30939 12.6511 9.30628C11.2237 8.94907 10.0369 8.14144 10.0242 8.13213C9.83119 7.99856 9.56533 8.04515 9.42924 8.23463C9.29315 8.42411 9.34063 8.68504 9.53368 8.8186C9.58749 8.85588 10.8471 9.71631 12.4232 10.1139C13.1607 10.3717 13.2429 11.1452 13.2651 11.8534C13.2651 11.8814 13.2651 11.9062 13.2683 11.9311C13.2714 12.2106 13.2524 12.6424 13.2018 12.8909C12.6891 13.1767 10.6794 14.1644 7.62208 14.1644C4.57745 14.1644 2.55508 13.1735 2.0392 12.8878C1.98856 12.6393 1.9664 12.2075 1.97273 11.9279C1.97273 11.9031 1.9759 11.8782 1.9759 11.8503C1.99805 11.1421 2.08034 10.3686 2.81776 10.1108C4.39388 9.7132 5.65351 8.84967 5.70732 8.8155C5.90038 8.68193 5.94785 8.42101 5.81176 8.23153C5.67567 8.04205 5.40982 7.99545 5.21676 8.12902C5.2041 8.13834 4.02359 8.94596 2.58989 9.30318C2.57723 9.30628 2.56774 9.30939 2.55824 9.3125C1.18467 9.77532 1.14353 11.2135 1.12454 11.8254C1.12454 11.8534 1.12454 11.8782 1.12138 11.9031C1.12138 11.9062 1.12138 11.9093 1.12138 11.9124C1.11821 12.0739 1.11505 12.9033 1.28279 13.3195C1.31443 13.4003 1.3714 13.4686 1.44736 13.5152C1.54231 13.5774 3.81787 15 7.62525 15C11.4326 15 13.7082 13.5743 13.8031 13.5152C13.8759 13.4686 13.9361 13.4003 13.9677 13.3195C14.126 12.9064 14.1228 12.077 14.1196 11.9155Z" fill="white"/>
</g>
<defs>
<clipPath id="clip0">
<rect width="15" height="15" fill="white"/>
</clipPath>
</defs>
</svg>
