<svg width="22" height="17" viewBox="0 0 22 17" fill="none" xmlns="http://www.w3.org/2000/svg">
<path d="M21.423 0.567436C21.0383 0.189075 20.5758 0 20.0358 0H1.96433C1.42416 0 0.961654 0.189075 0.576975 0.567436C0.192253 0.945713 0 1.40053 0 1.93185V15.0683C0 15.5997 0.192253 16.0541 0.576975 16.4324C0.961611 16.811 1.42412 17 1.96433 17H20.0358C20.5759 17 21.0383 16.811 21.423 16.4324C21.8078 16.0541 22 15.5994 22 15.0683V1.93185C22 1.40053 21.8078 0.945713 21.423 0.567436ZM20.4284 15.068C20.4284 15.1726 20.3896 15.2632 20.3117 15.3396C20.2339 15.4162 20.1419 15.4541 20.0356 15.4541H1.9642C1.85782 15.4541 1.76571 15.4162 1.68801 15.3396C1.61022 15.2632 1.57139 15.1726 1.57139 15.068V5.79535C1.83327 6.08512 2.11565 6.35078 2.4185 6.59221C4.61202 8.25032 6.35528 9.61056 7.64847 10.6731C8.06587 11.0193 8.40557 11.2889 8.66744 11.4821C8.92931 11.6754 9.28329 11.8705 9.72928 12.0676C10.1753 12.265 10.5948 12.3633 10.9877 12.3633H11H11.0122C11.405 12.3633 11.8247 12.265 12.2705 12.0676C12.7167 11.8705 13.0709 11.6755 13.3327 11.4821C13.5945 11.2889 13.9343 11.0193 14.3517 10.6731C15.6449 9.61056 17.3879 8.25032 19.5815 6.59221C19.8844 6.35082 20.1669 6.08512 20.4284 5.79535V15.068ZM20.4284 2.24568V2.37847C20.4284 2.85334 20.2383 3.38263 19.8577 3.96613C19.4771 4.54964 19.0657 5.01457 18.624 5.36058C17.0442 6.58426 15.4034 7.85991 13.7007 9.188C13.6517 9.22822 13.5083 9.34688 13.2709 9.54399C13.0338 9.7414 12.8455 9.8925 12.7063 9.997C12.5669 10.1018 12.385 10.2285 12.16 10.3773C11.9349 10.5261 11.7283 10.637 11.5401 10.7093C11.3518 10.7815 11.1758 10.8177 11.0122 10.8177H11H10.9877C10.824 10.8177 10.6482 10.7815 10.4599 10.7093C10.2716 10.637 10.0649 10.5261 9.83992 10.3773C9.61499 10.2285 9.43284 10.1017 9.29369 9.997C9.15463 9.8925 8.96629 9.7414 8.72902 9.54399C8.49165 9.34688 8.34829 9.22822 8.29923 9.188C6.5969 7.85987 4.95597 6.58426 3.37628 5.36058C2.17309 4.427 1.57161 3.28392 1.57161 1.93164C1.57161 1.8271 1.61044 1.73648 1.68823 1.6601C1.76601 1.5836 1.85803 1.54533 1.96442 1.54533H20.0359C20.1012 1.58149 20.1586 1.59155 20.2078 1.57557C20.2569 1.55929 20.2937 1.58957 20.3181 1.66598C20.3426 1.74248 20.3652 1.77864 20.3856 1.77467C20.4061 1.77061 20.4185 1.82089 20.4225 1.92568C20.4264 2.03026 20.4284 2.08291 20.4284 2.08291V2.24568H20.4284Z" fill="#EE2C37"/>
</svg>
