<svg width="22" height="22" viewBox="0 0 22 22" fill="none" xmlns="http://www.w3.org/2000/svg">
<g clip-path="url(#clip0)">
<path d="M17.8776 14.5952C17.4774 14.1804 16.9948 13.9586 16.4832 13.9586C15.9758 13.9586 15.489 14.1763 15.0724 14.5911L13.7688 15.8848C13.6615 15.8273 13.5543 15.7739 13.4511 15.7205C13.3026 15.6466 13.1624 15.5768 13.0427 15.5029C11.8216 14.7308 10.7119 13.7246 9.64759 12.4227C9.13193 11.7738 8.7854 11.2275 8.53376 10.6731C8.87204 10.3651 9.18556 10.0447 9.49083 9.73672C9.60634 9.62173 9.72185 9.50263 9.83736 9.38764C10.7037 8.52518 10.7037 7.4081 9.83736 6.54564L8.71115 5.42445C8.58326 5.29713 8.45126 5.16571 8.3275 5.03429C8.07998 4.77966 7.82008 4.51682 7.55194 4.2704C7.15178 3.87614 6.67325 3.66668 6.16996 3.66668C5.66667 3.66668 5.17989 3.87614 4.76736 4.2704C4.76323 4.27451 4.76323 4.27451 4.75911 4.27862L3.3565 5.68729C2.82846 6.21298 2.52732 6.85366 2.46131 7.59701C2.3623 8.79624 2.71708 9.91332 2.98935 10.6444C3.65765 12.4391 4.65597 14.1024 6.14521 15.8848C7.95209 18.0327 10.1261 19.7289 12.6096 20.924C13.5584 21.3717 14.8249 21.9014 16.2398 21.9918C16.3265 21.9959 16.4172 22 16.4997 22C17.4527 22 18.253 21.6591 18.88 20.9815C18.8842 20.9733 18.8924 20.9692 18.8965 20.961C19.111 20.7022 19.3586 20.4681 19.6185 20.2176C19.7958 20.0492 19.9774 19.8726 20.1547 19.6878C20.5632 19.2648 20.7777 18.772 20.7777 18.2668C20.7777 17.7576 20.559 17.2688 20.1424 16.8581L17.8776 14.5952ZM19.3544 18.9198C19.3503 18.9198 19.3503 18.9239 19.3544 18.9198C19.1936 19.0923 19.0285 19.2484 18.8512 19.4209C18.583 19.6755 18.3107 19.9424 18.055 20.2423C17.6383 20.6858 17.1474 20.8953 16.5039 20.8953C16.442 20.8953 16.376 20.8953 16.3141 20.8911C15.0889 20.8131 13.9503 20.3367 13.0963 19.9301C10.7614 18.8048 8.71115 17.2072 7.0074 15.1825C5.60067 13.4946 4.6601 11.9339 4.03718 10.2583C3.65352 9.23568 3.51326 8.43893 3.57514 7.68737C3.6164 7.20686 3.80204 6.80848 4.14444 6.46761L5.55117 5.06715C5.75331 4.87823 5.96782 4.77555 6.17821 4.77555C6.43811 4.77555 6.6485 4.93162 6.78051 5.06304C6.78463 5.06715 6.78876 5.07125 6.79288 5.07536C7.04453 5.30945 7.28379 5.55176 7.53544 5.8105C7.66332 5.94192 7.79533 6.07334 7.92734 6.20887L9.05355 7.33006C9.49083 7.7654 9.49083 8.16788 9.05355 8.60321C8.93392 8.72231 8.81841 8.84141 8.69877 8.95641C8.35225 9.3096 8.02222 9.63816 7.66332 9.9585C7.65507 9.96671 7.64682 9.97082 7.6427 9.97903C7.28792 10.3322 7.35392 10.6772 7.42818 10.9113C7.4323 10.9236 7.43643 10.9359 7.44056 10.9483C7.73345 11.6547 8.14598 12.32 8.77303 13.1126L8.77715 13.1167C9.91574 14.5131 11.1162 15.6014 12.4404 16.4351C12.6096 16.5419 12.7828 16.6282 12.9478 16.7103C13.0963 16.7842 13.2366 16.854 13.3562 16.928C13.3727 16.9362 13.3892 16.9485 13.4057 16.9567C13.546 17.0265 13.678 17.0594 13.8142 17.0594C14.1566 17.0594 14.3711 16.8458 14.4412 16.776L15.8521 15.3714C15.9923 15.2318 16.2151 15.0634 16.475 15.0634C16.7307 15.0634 16.9411 15.2236 17.069 15.3632C17.0731 15.3673 17.0731 15.3673 17.0773 15.3714L19.3503 17.6343C19.7752 18.0533 19.7752 18.4845 19.3544 18.9198Z" fill="#4953A4"/>
<path d="M11.8895 5.23321C13.106 5.43751 14.2111 6.01327 15.0933 6.89549C15.9756 7.77771 16.5467 8.8828 16.7556 10.0993C16.8067 10.4058 17.0714 10.6194 17.3732 10.6194C17.4103 10.6194 17.4428 10.6147 17.48 10.6101C17.8236 10.5544 18.0511 10.2293 17.9954 9.88575C17.7446 8.41384 17.0481 7.07194 15.9848 6.00863C14.9215 4.94533 13.5796 4.24884 12.1077 3.9981C11.7641 3.94238 11.4438 4.1699 11.3834 4.50886C11.323 4.84782 11.5459 5.17749 11.8895 5.23321Z" fill="#4953A4"/>
<path d="M21.9745 9.70468C21.5612 7.2809 20.419 5.07536 18.6638 3.32021C16.9087 1.56506 14.7031 0.422821 12.2794 0.00957175C11.9404 -0.0507905 11.62 0.181372 11.5597 0.520329C11.5039 0.86393 11.7315 1.18431 12.0751 1.24468C14.2388 1.61149 16.2122 2.63765 17.7816 4.20243C19.351 5.77185 20.3725 7.74523 20.7394 9.90898C20.7904 10.2154 21.0551 10.429 21.3569 10.429C21.3941 10.429 21.4266 10.4244 21.4637 10.4197C21.8027 10.3687 22.0348 10.0436 21.9745 9.70468Z" fill="#4953A4"/>
</g>
<defs>
<clipPath id="clip0">
<rect width="22" height="22" fill="white"/>
</clipPath>
</defs>
</svg>
