<svg width="20" height="20" viewBox="0 0 20 20" fill="none" xmlns="http://www.w3.org/2000/svg">
<g clip-path="url(#clip0)">
<path d="M6.53223 16.7895C6.8047 17.0702 7.25818 17.0702 7.54017 16.7895C7.81264 16.5183 7.81264 16.0668 7.54017 15.7962L2.42934 10.7082L19.2944 10.7082C19.6875 10.7076 20 10.3965 20 10.0051C20 9.61374 19.6875 9.29254 19.2944 9.29254L2.42934 9.29253L7.54017 4.21404C7.81264 3.93331 7.81264 3.48123 7.54017 3.21061C7.25818 2.92988 6.80407 2.92988 6.53223 3.21061L0.211497 9.50308C-0.0704969 9.77433 -0.0704969 10.2258 0.211497 10.4964L6.53223 16.7895Z" fill="#4953A4"/>
</g>
<defs>
<clipPath id="clip0">
<rect width="20" height="20" fill="white" transform="translate(20 20.0001) rotate(-180)"/>
</clipPath>
</defs>
</svg>
