<svg width="20" height="14" viewBox="0 0 20 14" fill="none" xmlns="http://www.w3.org/2000/svg">
<path d="M19.4946 1.30035C19.1578 1.00794 18.7527 0.861816 18.2797 0.861816H2.45278C1.9797 0.861816 1.57464 1.00794 1.23774 1.30035C0.900797 1.5927 0.732422 1.9442 0.732422 2.35482V12.5071C0.732422 12.9178 0.900797 13.269 1.23774 13.5613C1.5746 13.854 1.97966 14 2.45278 14H18.2798C18.7528 14 19.1578 13.854 19.4947 13.5613C19.8317 13.269 20 12.9176 20 12.5071V2.35482C20 1.9442 19.8317 1.5927 19.4946 1.30035ZM18.6236 12.5069C18.6236 12.5878 18.5896 12.6577 18.5214 12.7168C18.4532 12.776 18.3727 12.8053 18.2796 12.8053H2.45267C2.3595 12.8053 2.27883 12.776 2.21078 12.7168C2.14265 12.6577 2.10865 12.5878 2.10865 12.5069V5.34067C2.33799 5.56461 2.5853 5.76992 2.85054 5.95651C4.77162 7.23796 6.29837 8.28919 7.43094 9.11037C7.7965 9.37791 8.09401 9.58626 8.32336 9.73559C8.5527 9.88498 8.86271 10.0358 9.25332 10.1881C9.64396 10.3407 10.0114 10.4166 10.3554 10.4166H10.3662H10.3769C10.7209 10.4166 11.0885 10.3407 11.479 10.1881C11.8697 10.0358 12.1799 9.88502 12.4092 9.73559C12.6385 9.58626 12.936 9.37791 13.3016 9.11037C14.4342 8.28919 15.9608 7.23796 17.8819 5.95651C18.1472 5.76995 18.3946 5.56461 18.6236 5.34067V12.5069ZM18.6236 2.59736V2.69998C18.6236 3.06697 18.4571 3.47603 18.1238 3.92698C17.7905 4.37794 17.4302 4.73725 17.0433 5.00466C15.6597 5.95036 14.2227 6.93623 12.7315 7.96263C12.6886 7.99371 12.563 8.08542 12.3551 8.23775C12.1474 8.39031 11.9825 8.50709 11.8606 8.58785C11.7385 8.66883 11.5792 8.76678 11.3822 8.88176C11.185 8.99674 11.004 9.08243 10.8392 9.13835C10.6744 9.19414 10.5202 9.22208 10.3769 9.22208H10.3662H10.3554C10.2121 9.22208 10.0581 9.19414 9.89315 9.13835C9.72832 9.08243 9.54725 8.99674 9.35022 8.88176C9.15322 8.76675 8.99369 8.6688 8.87183 8.58785C8.75004 8.50709 8.58509 8.39031 8.37728 8.23775C8.1694 8.08542 8.04385 7.99371 8.00088 7.96263C6.50998 6.9362 5.07286 5.95036 3.68936 5.00466C2.63562 4.28316 2.10884 3.39975 2.10884 2.35466C2.10884 2.27387 2.14284 2.20383 2.21097 2.1448C2.27909 2.08568 2.35969 2.0561 2.45285 2.0561H18.2798C18.3371 2.08405 18.3873 2.09182 18.4304 2.07947C18.4734 2.06689 18.5056 2.09029 18.527 2.14935C18.5485 2.20847 18.5682 2.23641 18.5861 2.23334C18.6041 2.2302 18.6149 2.26906 18.6185 2.35005C18.6218 2.43087 18.6236 2.47156 18.6236 2.47156V2.59736H18.6236Z" fill="#4953A4"/>
</svg>
