<svg width="20" height="20" viewBox="0 0 20 20" fill="none" xmlns="http://www.w3.org/2000/svg">
<path d="M17.2589 10.1047H16.2389C16.2389 6.77585 13.5315 4.06906 10.2045 4.06906L10.2039 3.05027C14.0948 3.04843 17.2589 6.2138 17.2589 10.1047ZM10.2039 4.80989L10.2033 5.82869C12.5623 5.82869 14.4787 7.74689 14.4774 10.1041L15.4975 10.1035C15.4975 7.18484 13.1243 4.80989 10.2039 4.80989ZM10 0C4.4854 0 0 4.4854 0 10.0006C0 15.5146 4.4854 20 10 20C10.341 20 10.6165 19.7245 10.6165 19.3841C10.6165 19.0418 10.341 18.7657 10 18.7657C5.16562 18.7657 1.2337 14.8325 1.2337 10.0006C1.2337 5.16623 5.16562 1.2337 10 1.2337C14.8344 1.2337 18.7657 5.16684 18.7657 10.0006C18.7657 12.0204 17.6906 14.0219 16.152 14.8705C15.593 15.1779 14.9868 15.3303 14.3403 15.3364C14.7285 15.1056 15.0646 14.7934 15.3144 14.4003C15.3634 14.3262 15.4283 14.2607 15.4601 14.1805C15.6609 13.6974 15.6787 13.1495 15.7999 12.6388C15.9487 11.9874 12.948 10.7145 12.6872 11.5282C12.5929 11.8294 12.4484 12.7821 12.2592 13.0331C12.0909 13.2572 11.6757 13.1507 11.4162 12.9303C10.7323 12.3474 9.96877 11.4908 9.29896 10.8137L9.30019 10.8131C9.28305 10.7953 9.26223 10.7757 9.24386 10.7568C9.22488 10.739 9.2059 10.7188 9.18692 10.7004V10.7016C8.50977 10.0306 7.65261 9.26896 7.07035 8.58385C6.84994 8.32425 6.7434 7.90914 6.96749 7.74077C7.21851 7.55036 8.17119 7.40831 8.47242 7.3128C9.28427 7.05321 8.01322 4.05069 7.36056 4.20009C6.85116 4.31948 6.30319 4.33907 5.82012 4.53866C5.73808 4.57356 5.6744 4.63662 5.60032 4.68561C3.88661 5.77175 3.66558 8.40935 5.33827 10.3747C5.97563 11.1266 6.64054 11.8539 7.32505 12.5641L7.32137 12.5666C7.34035 12.5856 7.35995 12.6033 7.37954 12.6217C7.39791 12.6407 7.41566 12.6596 7.43342 12.6798L7.43709 12.6762C8.14731 13.3607 8.98916 14.3691 10.3569 15.2813C13.2364 17.2044 15.446 16.6675 16.7477 15.9536C18.9947 14.7162 20 12.0731 20 10.0031C20 4.4854 15.514 0 10 0Z" fill="white"/>
</svg>
