<svg width="45" height="45" viewBox="0 0 45 45" fill="none" xmlns="http://www.w3.org/2000/svg">
<path d="M45 0H0V45H45V0Z" fill="#61A8DE"/>
<path d="M35.4331 9.9334L5.34102 21.66C4.36633 22.0398 4.42538 23.4385 5.4287 23.7347L13.0754 25.9928L15.9292 35.0481C16.2273 35.9939 17.4259 36.2807 18.1198 35.5722L22.0733 31.5354L29.8305 37.2294C30.7798 37.9262 32.1318 37.4085 32.3729 36.2559L37.5105 11.6927C37.7621 10.4895 36.5784 9.48709 35.4331 9.9334ZM31.6603 15.3846L17.6827 27.745C17.5434 27.8682 17.4547 28.0387 17.434 28.2236L16.8959 33.0074C16.8783 33.1635 16.66 33.1841 16.6134 33.0342L14.3993 25.8998C14.2979 25.5731 14.4301 25.2192 14.7207 25.039L31.2268 14.8018C31.6063 14.5662 31.995 15.0887 31.6603 15.3846Z" fill="white"/>
</svg>
