<svg width="45" height="45" viewBox="0 0 45 45" fill="none" xmlns="http://www.w3.org/2000/svg">
<path d="M45 0L0 2.37493e-05L1.60024e-05 45H45V0Z" fill="#7B519D"/>
<path fill-rule="evenodd" clip-rule="evenodd" d="M37.0823 30.3624C36.0102 29.4993 34.8645 28.7247 33.7368 27.9333C31.4877 26.3536 29.4305 26.2309 27.7523 28.7723C26.8098 30.1991 25.4905 30.2616 24.111 29.6356C20.3079 27.9112 17.3712 25.2543 15.651 21.3889C14.8901 19.6787 14.9001 18.1454 16.6805 16.9359C17.6231 16.2962 18.5728 15.5393 18.4969 14.1416C18.3977 12.3191 13.9727 6.22852 12.2252 5.58569C11.5022 5.31965 10.7821 5.33696 10.0464 5.5842C5.94898 6.96215 4.25181 10.332 5.87717 14.322C10.7261 26.2261 19.2594 34.5133 31.006 39.5714C31.6757 39.8594 32.4197 39.9746 32.7964 40.0779C35.4707 40.1048 38.6036 37.5282 39.5083 34.9711C40.3794 32.5111 38.5385 31.5346 37.0823 30.3624ZM23.9114 6.80614C32.499 8.1267 36.4594 12.2101 37.5529 20.8594C37.6544 21.6583 37.3568 22.8605 38.4966 22.8827C39.6879 22.9054 39.4008 21.721 39.4109 20.9213C39.5116 12.7752 32.4087 5.22349 24.1597 4.94506C23.5374 5.03462 22.2496 4.51589 22.1693 5.9108C22.1158 6.85123 23.2 6.69672 23.9114 6.80614V6.80614Z" fill="white"/>
<path fill-rule="evenodd" clip-rule="evenodd" d="M25.5912 9.17782C24.7652 9.07832 23.6747 8.68914 23.4817 9.83524C23.2802 11.0382 24.4955 10.916 25.2764 11.0908C30.5803 12.2762 32.427 14.2067 33.3003 19.4678C33.4278 20.2348 33.1744 21.4286 34.478 21.2308C35.444 21.0837 35.095 20.0603 35.1758 19.4626C35.2186 14.4115 30.8904 9.81414 25.5912 9.17782V9.17782Z" fill="white"/>
<path fill-rule="evenodd" clip-rule="evenodd" d="M26.0782 13.308C25.5269 13.3216 24.9858 13.3813 24.7831 13.9705C24.4787 14.8512 25.119 15.0612 25.7707 15.1659C27.9464 15.5151 29.0915 16.7981 29.3088 18.9677C29.3675 19.5566 29.7413 20.0338 30.3101 19.9666C31.0984 19.8726 31.1697 19.1709 31.1455 18.5046C31.1844 16.0671 28.4293 13.2497 26.0782 13.308V13.308Z" fill="white"/>
</svg>
