<svg width="181" height="300" viewBox="0 0 181 300" fill="none" xmlns="http://www.w3.org/2000/svg">
<path d="M75.3029 211.308C52.0463 208.883 31.077 203.155 13.124 189.114C10.8963 187.367 8.59644 185.683 6.56361 183.731C-1.29438 176.185 -2.08615 167.541 4.13175 158.634C9.45105 151.011 18.3804 148.972 27.6617 153.349C29.4589 154.197 31.1713 155.256 32.8114 156.393C66.2699 179.383 112.233 180.018 145.817 157.427C149.145 154.876 152.701 152.796 156.824 151.734C164.839 149.676 172.313 152.62 176.615 159.633C181.529 167.642 181.466 175.459 175.411 181.677C166.124 191.209 154.954 198.106 142.544 202.919C130.808 207.469 117.955 209.759 105.233 211.28C107.153 213.369 108.058 214.397 109.258 215.603C126.532 232.959 143.882 250.243 161.1 267.653C166.966 273.585 168.191 280.94 164.961 287.84C161.43 295.38 153.525 300.341 145.773 299.81C140.863 299.471 137.033 297.027 133.63 293.599C120.594 280.481 107.313 267.605 94.541 254.24C90.8241 250.353 89.0363 251.088 85.7561 254.463C72.6417 267.964 59.3136 281.257 45.907 294.475C39.887 300.41 32.7234 301.479 25.742 298.089C18.3207 294.491 13.5984 286.916 13.9629 279.303C14.2142 274.153 16.7466 270.22 20.2813 266.691C37.3766 249.621 54.4247 232.507 71.4792 215.408C72.6071 214.271 73.6597 213.065 75.3029 211.308Z" fill="#4953A4"/>
<path d="M89.4697 151.847C47.9804 151.706 13.9595 117.311 14.2015 75.7556C14.4403 33.7416 48.4832 -0.115953 90.3809 0.000298473C132.363 0.113408 166.061 34.4579 165.85 76.9087C165.637 118.379 131.38 151.992 89.4697 151.847ZM127.176 75.8561C127.104 55.223 110.672 38.7969 90.0793 38.7781C69.3142 38.7561 52.7342 55.4806 52.8944 76.3023C53.0484 96.8568 69.6221 113.167 90.2709 113.091C110.857 113.019 127.245 96.4861 127.176 75.8561Z" fill="#4953A4"/>
</svg>
