<svg width="163" height="300" viewBox="0 0 163 300" fill="none" xmlns="http://www.w3.org/2000/svg">
<path d="M156.087 0.06242L117.184 0C73.4777 0 45.2327 28.9785 45.2327 73.8304V107.871H6.11717C2.73712 107.871 0 110.611 0 113.991V163.313C0 166.693 2.74024 169.43 6.11717 169.43H45.2327V293.883C45.2327 297.263 47.9698 300 51.3498 300H102.384C105.764 300 108.502 297.26 108.502 293.883V169.43H154.237C157.617 169.43 160.354 166.693 160.354 163.313L160.373 113.991C160.373 112.369 159.727 110.814 158.581 109.666C157.436 108.517 155.875 107.871 154.252 107.871H108.502V79.0144C108.502 65.1447 111.807 58.1037 129.874 58.1037L156.081 58.0943C159.458 58.0943 162.195 55.3541 162.195 51.9772V6.17958C162.195 2.80578 159.461 0.068662 156.087 0.06242Z" fill="#4953A4"/>
</svg>
