<svg width="300" height="300" viewBox="0 0 300 300" fill="none" xmlns="http://www.w3.org/2000/svg">
<path d="M206.25 0H93.75C41.9813 0 0 41.9813 0 93.75V206.25C0 258.019 41.9813 300 93.75 300H206.25C258.019 300 300 258.019 300 206.25V93.75C300 41.9813 258.019 0 206.25 0ZM271.875 206.25C271.875 242.437 242.437 271.875 206.25 271.875H93.75C57.5625 271.875 28.125 242.437 28.125 206.25V93.75C28.125 57.5625 57.5625 28.125 93.75 28.125H206.25C242.437 28.125 271.875 57.5625 271.875 93.75V206.25Z" fill="#4953A4"/>
<path d="M150 75C108.581 75 75 108.581 75 150C75 191.419 108.581 225 150 225C191.419 225 225 191.419 225 150C225 108.581 191.419 75 150 75ZM150 196.875C124.162 196.875 103.125 175.838 103.125 150C103.125 124.144 124.162 103.125 150 103.125C175.838 103.125 196.875 124.144 196.875 150C196.875 175.838 175.838 196.875 150 196.875Z" fill="#4953A4"/>
<path d="M230.625 79.3688C236.144 79.3688 240.619 74.8945 240.619 69.3751C240.619 63.8557 236.144 59.3813 230.625 59.3813C225.106 59.3813 220.631 63.8557 220.631 69.3751C220.631 74.8945 225.106 79.3688 230.625 79.3688Z" fill="#4953A4"/>
</svg>
