<svg width="20" height="20" viewBox="0 0 20 20" fill="none" xmlns="http://www.w3.org/2000/svg">
<g clip-path="url(#clip0)">
<path d="M6.53211 16.7894C6.80458 17.0702 7.25806 17.0702 7.54005 16.7894C7.81252 16.5182 7.81252 16.0667 7.54005 15.7961L2.42922 10.7082L19.2943 10.7082C19.6874 10.7075 19.9999 10.3964 19.9999 10.0051C19.9999 9.61367 19.6874 9.29248 19.2943 9.29248L2.42922 9.29247L7.54005 4.21398C7.81252 3.93325 7.81252 3.48117 7.54005 3.21055C7.25806 2.92982 6.80394 2.92982 6.53211 3.21055L0.211375 9.50302C-0.070619 9.77427 -0.070619 10.2257 0.211375 10.4963L6.53211 16.7894Z" fill="white"/>
</g>
<defs>
<clipPath id="clip0">
<rect width="20" height="20" fill="white" transform="translate(19.9999 20) rotate(-180)"/>
</clipPath>
</defs>
</svg>
