<svg width="30" height="30" viewBox="0 0 30 30" fill="none" xmlns="http://www.w3.org/2000/svg">
<path d="M1.13208 7.64159H28.8679C29.4928 7.64159 30 7.13442 30 6.50952C30 5.88461 29.4928 5.37744 28.8679 5.37744H1.13208C0.50717 5.37744 0 5.88461 0 6.50952C0 7.13442 0.50717 7.64159 1.13208 7.64159Z" fill="white"/>
<path d="M1.13208 16.1318H28.8679C29.4928 16.1318 30 15.6247 30 14.9998C30 14.3748 29.4928 13.8677 28.8679 13.8677H1.13208C0.50717 13.8677 0 14.3748 0 14.9998C0 15.6247 0.50717 16.1318 1.13208 16.1318Z" fill="white"/>
<path d="M1.13208 24.6225H28.8679C29.4928 24.6225 30 24.1154 30 23.4905C30 22.8656 29.4928 22.3584 28.8679 22.3584H1.13208C0.50717 22.3584 0 22.8656 0 23.4905C0 24.1154 0.50717 24.6225 1.13208 24.6225Z" fill="white"/>
</svg>
