<svg width="45" height="45" viewBox="0 0 45 45" fill="none" xmlns="http://www.w3.org/2000/svg">
<path d="M0 0H45V45H0V0Z" fill="#1BD741"/>
<path d="M38.2366 38.2537L36.0323 30.425C37.4498 28.017 38.1961 25.2772 38.1961 22.4626C38.1961 13.7965 31.1457 6.74609 22.4795 6.74609C13.8134 6.74609 6.7631 13.7965 6.7631 22.4626C6.7631 31.1288 13.8134 38.1792 22.4795 38.1792C25.1799 38.1792 27.824 37.488 30.1631 36.1755L38.2366 38.2537ZM29.7503 33.3162L29.2693 33.61C27.2298 34.855 24.8819 35.5131 22.4795 35.5131C15.2835 35.5131 9.42915 29.6587 9.42915 22.4626C9.42915 15.2666 15.2835 9.41214 22.4795 9.41214C29.6756 9.41214 35.53 15.2666 35.53 22.4626C35.53 24.97 34.8174 27.4049 33.4694 29.5041L33.1454 30.0085L34.4147 34.5169L29.7503 33.3162Z" fill="white"/>
<path d="M26.8944 15.1475L27.9142 15.0919C28.2345 15.0745 28.5487 15.1815 28.7909 15.3918C29.2853 15.8211 30.0758 16.6512 30.3186 17.7328C30.6807 19.3456 30.1211 21.3204 28.6729 23.2953C27.2246 25.2701 24.5257 28.4299 19.7531 29.7794C18.2152 30.2142 17.0054 29.9211 16.072 29.324C15.3327 28.8511 14.8231 28.0921 14.6395 27.234L14.4766 26.4735C14.4249 26.2318 14.5476 25.9865 14.7722 25.883L18.2188 24.2943C18.4425 24.1913 18.7079 24.2564 18.8583 24.4514L20.2114 26.2055C20.3136 26.338 20.4886 26.3905 20.6466 26.3351C21.5732 26.0094 24.677 24.7095 26.3802 21.4288C26.454 21.2865 26.4356 21.1138 26.3309 20.9925L25.0377 19.4965C24.9056 19.3438 24.8723 19.129 24.9516 18.9434L26.4373 15.4676C26.5164 15.2825 26.6937 15.1585 26.8944 15.1475Z" fill="white"/>
</svg>
